#N canvas 590 47 941 618 10;
#X obj 100 100 cnv 15 210 170 empty empty empty 20 12 0 14 -260865
-66577 0;
#X obj 144 120 hsl 64 8 0 5 0 0 empty empty empty -2 -8 0 10 -262130
-1 -1 126 1;
#X obj 144 133 hsl 64 8 0 5 0 0 empty empty empty -2 -8 0 10 -262130
-1 -1 378 1;
#X obj 144 152 hsl 64 8 0 1000 0 0 empty empty empty -2 -8 0 10 -232576
-1 -1 252 1;
#X obj 145 166 hsl 64 8 0 1000 0 0 empty empty empty -2 -8 0 10 -232576
-1 -1 104 1;
#X text 105 116 start;
#X text 116 128 end;
#X text 101 147 freq A;
#X text 103 165 freq B;
#X obj 286 123 vsl 8 100 0 32000 0 0 empty empty empty 0 -9 0 10 -261234
-1 -1 7403 1;
#X text 283 98 amp;
#X obj 110 199 hsl 40 8 0 1 0 0 empty empty empty -2 -8 0 10 -212480
-1 -1 3900 1;
#X text 106 182 pan start;
#X obj 171 198 hsl 40 8 0 1 0 0 empty empty empty -2 -8 0 10 -212480
-1 -1 390 1;
#X text 167 181 pan end;
#X floatatom 242 248 10 0 0 0 - - -;
#X floatatom 220 114 5 0 0 0 - - -;
#X floatatom 221 130 5 0 0 0 - - -;
#X floatatom 218 147 7 0 0 0 - - -;
#X floatatom 219 164 7 0 0 0 - - -;
#X floatatom 117 209 5 0 0 0 - - -;
#X floatatom 176 209 5 0 0 0 - - -;
#X obj 264 124 vsl 8 100 0 3 0 0 empty empty empty 0 -9 0 10 -208834
-1 -1 130 1;
#X text 252 99 attac;
#X floatatom 259 228 5 0 0 0 - - -;
#X obj 110 102 bng 15 250 50 0 empty empty empty 17 7 0 10 -4160 -262144
-262144;
#X obj 144 27 pack f f f f f f f f f;
#X obj 244 397 s myevent;
#X obj 347 102 loadbang;
#X msg 358 198 \$1;
#X msg 403 202 \$2;
#X msg 444 201 \$3;
#X msg 477 203 \$4;
#X msg 357 237 \$5;
#X msg 395 239 \$6;
#X msg 436 236 \$7;
#X msg 473 237 \$8;
#X msg 358 288 \$9;
#X obj 360 152 \$1 \$2 \$3 \$4 \$5 \$6 \$7 \$8 \$9;
#X obj 84 401 outlet;
#X obj 312 41 inlet;
#X obj 378 40 inlet;
#X obj 427 48 inlet;
#X obj 449 73 inlet;
#X obj 475 91 inlet;
#X obj 515 102 inlet;
#X obj 555 115 inlet;
#X obj 574 155 inlet;
#X obj 588 184 inlet;
#X obj 110 252 tgl 15 0 empty empty empty 17 7 0 10 -262144 -1 -1 1
1;
#X connect 1 0 16 0;
#X connect 2 0 17 0;
#X connect 3 0 18 0;
#X connect 3 0 26 4;
#X connect 4 0 19 0;
#X connect 4 0 26 5;
#X connect 9 0 15 0;
#X connect 9 0 26 3;
#X connect 11 0 20 0;
#X connect 11 0 26 7;
#X connect 13 0 21 0;
#X connect 13 0 26 8;
#X connect 16 0 26 1;
#X connect 17 0 26 2;
#X connect 22 0 24 0;
#X connect 22 0 26 6;
#X connect 25 0 26 0;
#X connect 26 0 27 0;
#X connect 28 0 38 0;
#X connect 29 0 1 0;
#X connect 30 0 2 0;
#X connect 31 0 9 0;
#X connect 32 0 3 0;
#X connect 33 0 4 0;
#X connect 34 0 22 0;
#X connect 35 0 11 0;
#X connect 36 0 13 0;
#X connect 38 0 29 0;
#X connect 38 0 30 0;
#X connect 38 0 31 0;
#X connect 38 0 32 0;
#X connect 38 0 33 0;
#X connect 38 0 34 0;
#X connect 38 0 35 0;
#X connect 38 0 36 0;
#X connect 38 0 37 0;
#X connect 40 0 49 0;
#X connect 41 0 1 0;
#X connect 42 0 2 0;
#X connect 43 0 9 0;
#X connect 44 0 3 0;
#X connect 45 0 4 0;
#X connect 46 0 22 0;
#X connect 47 0 11 0;
#X connect 48 0 13 0;
#X connect 49 0 25 0;
#X connect 49 0 39 0;
#X coords 0 -1 1 1 230 190 1 90 80;
